<?xml version="1.0" standalone="no"?>
<!DOCTYPE svg PUBLIC "-//W3C//DTD SVG 20010904//EN"
 "http://www.w3.org/TR/2001/REC-SVG-20010904/DTD/svg10.dtd">
<svg version="1.0" xmlns="http://www.w3.org/2000/svg"
 width="500.000000pt" height="500.000000pt" viewBox="0 0 500.000000 500.000000"
 preserveAspectRatio="xMidYMid meet">
<metadata>
Created by potrace 1.14, written by Peter Selinger 2001-2017
</metadata>
<g transform="translate(0.000000,500.000000) scale(0.100000,-0.100000)"
fill="#000000" stroke="none">
<path d="M0 2500 l0 -2500 2500 0 2500 0 0 2500 0 2500 -2500 0 -2500 0 0
-2500z m1279 1565 c106 -59 137 -118 166 -320 l22 -150 1274 -5 c1163 -5 1277
-6 1304 -22 42 -23 81 -66 99 -110 32 -76 42 -42 -235 -848 -28 -80 -59 -172
-69 -205 -36 -112 -88 -174 -189 -225 -39 -19 -82 -25 -350 -46 -790 -60
-1738 -130 -1900 -140 -101 -6 -117 -10 -138 -30 -29 -29 -31 -82 -4 -115 l19
-24 1199 -5 c1147 -5 1200 -6 1248 -24 124 -47 230 -155 272 -278 25 -73 -14
-138 -83 -138 -39 0 -89 39 -99 77 -9 37 -54 97 -92 123 -74 51 -27 49 -1274
50 -1287 0 -1221 -3 -1304 64 -150 124 -123 367 51 452 43 21 76 28 154 34 55
3 101 8 104 11 3 4 -1 44 -49 399 -13 102 -36 273 -50 380 -14 107 -36 278
-50 380 -75 558 -66 516 -107 544 -18 13 -51 16 -151 16 -135 0 -176 10 -197
49 -14 26 -12 82 3 102 28 36 49 39 212 37 156 -3 161 -4 214 -33z m737 -2564
c107 -50 165 -139 172 -261 5 -101 -21 -172 -89 -239 -152 -150 -406 -107
-500 85 -34 68 -34 208 -1 271 35 67 78 110 144 143 52 25 73 30 137 30 63 0
86 -5 137 -29z m1505 -3 c104 -61 163 -160 163 -274 1 -183 -151 -325 -333
-312 -313 23 -400 441 -121 586 62 33 69 34 155 30 76 -3 98 -8 136 -30z"/>
<path d="M1495 3378 c2 -13 14 -95 25 -183 11 -88 31 -245 45 -350 14 -104 37
-278 50 -385 30 -228 35 -260 44 -260 3 0 89 7 191 15 102 8 219 17 260 20
124 8 1087 80 1300 96 84 6 157 17 172 25 48 25 44 15 173 394 41 118 106 307
144 420 39 113 69 211 66 218 -3 9 -261 12 -1240 12 l-1235 0 5 -22z m696
-217 l29 -29 0 -307 0 -307 -29 -29 c-38 -37 -88 -39 -128 -5 l-28 24 0 317 0
317 28 24 c40 34 90 32 128 -5z m520 19 c45 -25 49 -51 49 -362 0 -324 0 -327
-64 -353 -26 -11 -37 -11 -66 1 -19 8 -41 22 -47 31 -10 13 -13 94 -13 326 l0
309 29 29 c31 31 75 38 112 19z m532 -2 c46 -24 46 -27 47 -355 l0 -311 -31
-26 c-57 -48 -129 -28 -149 42 -14 52 -13 577 1 605 26 51 84 71 132 45z"/>
<path d="M1840 1337 c-81 -28 -105 -137 -43 -199 76 -76 203 -23 203 84 -1 85
-79 142 -160 115z"/>
<path d="M3343 1343 c-36 -7 -81 -56 -89 -97 -18 -98 88 -177 175 -132 124 65
51 257 -86 229z"/>
</g>
</svg>
